<svg xmlns="http://www.w3.org/2000/svg" style="isolation:isolate" viewBox="0 0 512 512"><defs><clipPath id="a"><path d="M0 0h512v512H0z"/></clipPath></defs><g clip-path="url(#a)"><path fill="#010101" d="M145.12 1.674c68.774-.361 137.568-.041 206.351-.155 9.294.145 19.031-.92 27.797 2.915 15.888 5.944 27.208 22.246 27.032 39.24.041 135.087 0 270.173.021 405.26-.125 6.884.144 13.769-.042 20.653-.382 14.958-9.396 29.348-22.762 36.098-6.068 3.163-12.88 4.869-19.734 4.827-71.626-.02-143.253 0-214.879-.01-12.022.124-23.952-5.282-31.839-14.327-6.957-7.784-10.906-18.235-10.658-28.686-.165-6.202.497-12.477-.754-18.597 1.292-6.14.537-12.415.744-18.627 0-107.176.01-214.352 0-321.518-.186-4.28.445-8.611-.496-12.828-.734-2.626.703-5.2.517-7.846-.062-14.803.031-29.616-.042-44.419.031-11.351 4.931-22.556 13.149-30.361C126.42 6.688 135.6 2.491 145.12 1.674zm-22.783 40.853c-.103 15.433-.062 30.867-.01 46.3 89.354.031 178.709.052 268.074-.01.052-15.403.073-30.815-.02-46.218-.373-13.634-12.922-25.522-26.557-25.191-71.657.01-143.315-.021-214.972.01-13.604-.341-26.132 11.516-26.515 25.109zm-.083 56.896c.155 114.732-.144 229.455.145 344.177 89.324-.31 178.658-.042 267.982-.135.124-114.67 0-229.351.062-344.021-89.396.02-178.793.041-268.189-.021zm.021 354.617c.507 8.394-1.488 17.388 2.522 25.202 3.143 6.864 9.397 12.085 16.55 14.348 4.125 1.251 8.477 1.024 12.736 1.034 70.251-.031 140.503.031 210.765-.031 13.231-.165 25.088-11.826 25.543-25.047.145-5.158-.072-10.327.062-15.495-89.396 0-178.782.041-268.178-.011z"/><path fill="#010101" d="M250.901 44.706c3.184-.922 6.767-.817 10.004-.116 4.168 1.614 4.106 8.296-.095 9.857a22.577 22.577 0 0 1-9.657.011c-4.054-1.592-4.253-7.972-.252-9.752z"/><path fill="#010101" d="M228.945 44.978c1.393-.953 3.153-.786 4.766-.88 15.356.115 30.712 0 46.078.053 2.661-.189 5.237 1.812 5.615 4.483.639 3.205-2.211 6.452-5.479 6.201-16.162.042-32.325.125-48.477-.032-5.048.063-6.819-7.405-2.503-9.825z"/><clipPath id="b"><path fill="#FFF" d="M178.773 187.29h154.454v137.42H178.773z"/></clipPath><g fill="#010101" clip-path="url(#b)"><path d="M282.187 187.943c2.987-.706 6.158-.951 9.154-.167a12.412 12.412 0 0 1 6.066 3.615c1.379 1.46 2.442 3.198 3.243 5.034 1.174 2.679 1.842 5.556 2.223 8.448.709 5.558.402 11.203-.393 16.736-.434 2.908-.973 5.804-1.679 8.658 6.85 1.98 13.575 4.59 19.648 8.366 3.771 2.399 7.372 5.244 9.938 8.95 1.48 2.135 2.555 4.608 2.782 7.216.28 2.699-.472 5.42-1.755 7.78-1.358 2.492-3.253 4.652-5.353 6.545-3.744 3.356-8.122 5.932-12.655 8.069-3.958 1.872-8.09 3.351-12.273 4.635 1.593 6.436 2.541 13.067 2.402 19.709-.088 3.444-.472 6.901-1.398 10.227-.579 2.089-1.386 4.123-2.498 5.988-1.427 2.372-3.44 4.466-5.98 5.635-2.777 1.325-5.96 1.542-8.975 1.144-4.998-.686-9.672-2.813-13.983-5.358-5.248-3.147-10.016-7.045-14.41-11.29-4.356 4.21-9.127 8.015-14.344 11.107a51.647 51.647 0 0 1-7.43 3.626c-3.805 1.428-7.904 2.386-11.987 1.91-2.583-.307-5.124-1.283-7.098-3.005-2.891-2.457-4.577-6.026-5.55-9.63-1.42-5.371-1.478-11.005-.993-16.509.412-4.455 1.23-8.866 2.306-13.208-5.607-1.627-11.092-3.737-16.214-6.556-4.287-2.385-8.38-5.255-11.61-8.982-1.623-1.892-3.002-4.03-3.829-6.392-.877-2.501-1.042-5.276-.297-7.831.932-3.322 3.025-6.192 5.459-8.585 2.307-2.28 4.957-4.183 7.726-5.859 5.878-3.478 12.303-5.943 18.858-7.805-1.948-7.85-3.155-15.99-2.431-24.085.346-3.559 1.084-7.128 2.639-10.368 1.423-2.948 3.66-5.66 6.72-6.983 2.824-1.331 6.05-1.49 9.104-1.077 3.974.551 7.757 2.039 11.312 3.859 6.439 3.338 12.192 7.865 17.442 12.84 3.871-3.751 8.033-7.22 12.551-10.169 4.189-2.706 8.69-5.051 13.562-6.238zm-2.727 7.844c-2.687 1.155-5.247 2.593-7.676 4.22-3.982 2.639-7.65 5.726-11.078 9.047 4.656 5.067 8.948 10.461 12.902 16.091.157.313.553.222.839.28a161.515 161.515 0 0 1 19.966 3.178c1.409-5.906 2.315-11.965 2.247-18.047-.061-3.321-.385-6.677-1.412-9.851-.655-1.982-1.605-3.959-3.217-5.339-1.278-1.109-3.016-1.514-4.675-1.496-2.738.027-5.388.877-7.896 1.917zm-59.299-.623c-1.625 1.138-2.625 2.939-3.311 4.759-1.043 2.86-1.432 5.912-1.564 8.94-.249 6.635.795 13.252 2.401 19.672 6.789-1.53 13.686-2.546 20.612-3.204 4.049-5.686 8.404-11.157 13.152-16.276-1.656-1.559-3.344-3.091-5.116-4.518-4.008-3.237-8.302-6.181-13.022-8.282-2.663-1.16-5.478-2.123-8.406-2.238-1.641-.067-3.365.201-4.746 1.147zm35.913 18.602a143.392 143.392 0 0 0-9.157 10.971 204.87 204.87 0 0 1 18.247 0c-2.854-3.798-5.866-7.48-9.09-10.971zm-14.125 17.883a183.898 183.898 0 0 0-14.067 24.383c4.08 8.479 8.826 16.633 14.13 24.405 9.365.609 18.77.604 28.134-.045 5.202-7.838 9.934-15.993 14.05-24.453-4.173-8.391-8.852-16.536-14.113-24.294a190.21 190.21 0 0 0-28.134.004zm-22.481 3.257a138.447 138.447 0 0 0 3.147 9.013c.584 1.438 1.094 2.914 1.788 4.301a195.154 195.154 0 0 1 9.063-15.728c-4.699.596-9.381 1.357-13.998 2.414zm59.086-2.397a221.538 221.538 0 0 1 9.14 15.76c1.844-4.354 3.532-8.777 4.943-13.29-4.644-1.09-9.356-1.853-14.083-2.47zm-78.713 8.953c-3.749 1.854-7.385 4.052-10.419 6.957-1.694 1.666-3.261 3.613-3.873 5.953-.498 1.897.109 3.885 1.073 5.53 1.292 2.169 3.085 3.997 5.04 5.577a43.425 43.425 0 0 0 7.022 4.62c4.518 2.457 9.358 4.266 14.282 5.722 2.079-6.763 4.675-13.358 7.621-19.787-2.907-6.344-5.462-12.851-7.528-19.517-4.529 1.288-8.98 2.886-13.218 4.945zm91.676 14.443c3.012 6.351 5.682 12.869 7.822 19.566 4.427-1.326 8.763-2.974 12.899-5.045 4.087-2.096 8.073-4.571 11.217-7.965 1.567-1.761 3.005-3.858 3.17-6.282.063-2.382-1.255-4.525-2.753-6.273-1.843-2.099-4.071-3.827-6.412-5.334-5.663-3.622-11.993-6.075-18.424-7.951-2.052 6.594-4.632 13.013-7.519 19.284zm-12.981 23.679a138.18 138.18 0 0 0 14.405-2.449 143.304 143.304 0 0 0-5.186-13.576 225.615 225.615 0 0 1-9.219 16.025zm-54.158-15.783c-1.879 4.455-3.573 8.991-5.004 13.61 4.697 1.032 9.458 1.746 14.233 2.295-3.329-5.15-6.384-10.473-9.229-15.905zm49.447 22.912a161.606 161.606 0 0 1-12.938 16.451c2.331 2.231 4.762 4.362 7.322 6.329 3.643 2.767 7.538 5.264 11.794 6.978 2.596 1.036 5.371 1.788 8.188 1.631 1.503-.111 3.008-.629 4.123-1.67 1.613-1.502 2.559-3.566 3.23-5.631 1.019-3.259 1.354-6.694 1.404-10.094.045-5.806-.818-11.59-2.195-17.22-6.884 1.591-13.894 2.592-20.928 3.226zm-56.232-2.927c-.73 2.948-1.337 5.927-1.754 8.936-.679 5.008-.932 10.132-.101 15.139.44 2.497 1.154 5.018 2.607 7.129.881 1.293 2.184 2.325 3.709 2.733 1.922.512 3.957.362 5.889-.016 2.504-.518 4.903-1.456 7.203-2.559 6.145-3.003 11.596-7.258 16.52-11.97-4.788-5.148-9.174-10.66-13.258-16.381-6.992-.568-13.961-1.504-20.815-3.011zm29.379 3.536c2.923 3.843 5.999 7.573 9.288 11.108 3.224-3.543 6.223-7.289 9.065-11.143-6.114.274-12.238.248-18.353.035z"/><path d="M254.528 242.154a13.813 13.813 0 0 1 7.109 1.12c2.704 1.2 4.987 3.307 6.424 5.89 2.36 4.155 2.303 9.541-.133 13.649a13.878 13.878 0 0 1-5.778 5.407c-2.659 1.337-5.76 1.755-8.683 1.208-4.102-.741-7.779-3.469-9.691-7.172-1.584-3.008-1.983-6.609-1.113-9.893 1.03-4.018 3.99-7.476 7.795-9.126a13.722 13.722 0 0 1 4.07-1.083z"/></g></g></svg>
